<svg width="22" height="22" viewBox="0 0 22 22" fill="none" xmlns="http://www.w3.org/2000/svg">
<path d="M10.2149 16.3925H4.28174" stroke="white" stroke-width="1.5" stroke-linecap="round" stroke-linejoin="round"/>
<path fill-rule="evenodd" clip-rule="evenodd" d="M13.9377 16.3934C13.9377 18.2651 14.5619 18.8884 16.4327 18.8884C18.3035 18.8884 18.9277 18.2651 18.9277 16.3934C18.9277 14.5218 18.3035 13.8984 16.4327 13.8984C14.5619 13.8984 13.9377 14.5218 13.9377 16.3934Z" stroke="white" stroke-width="1.5" stroke-linecap="round" stroke-linejoin="round"/>
<path d="M12.9951 6.77801H18.9274" stroke="white" stroke-width="1.5" stroke-linecap="round" stroke-linejoin="round"/>
<path fill-rule="evenodd" clip-rule="evenodd" d="M9.27226 6.77671C9.27226 4.90589 8.64811 4.28174 6.77729 4.28174C4.90565 4.28174 4.28149 4.90589 4.28149 6.77671C4.28149 8.64835 4.90565 9.27169 6.77729 9.27169C8.64811 9.27169 9.27226 8.64835 9.27226 6.77671Z" stroke="white" stroke-width="1.5" stroke-linecap="round" stroke-linejoin="round"/>
</svg>
